<svg width="139" height="44" viewBox="0 0 139 44" fill="none" xmlns="http://www.w3.org/2000/svg">
<path d="M26.46 43.2H10.86C10.1 43.2 9.46001 43.06 8.94001 42.78C8.46001 42.5 8.08001 41.98 7.80001 41.22L1.92001 26.5199C1.56001 25.64 1.26001 24.88 1.02001 24.24C0.78001 23.56 0.58001 22.92 0.42001 22.3199C0.26001 21.72 0.14001 21.1 0.06001 20.46C0.0200099 19.7799 9.84967e-06 18.9599 9.84967e-06 18V2.15995C9.84967e-06 1.39995 0.16001 0.85995 0.48001 0.53995C0.84001 0.17995 1.40001 -5.05447e-05 2.16001 -5.05447e-05H11.7C12.46 -5.05447e-05 13.04 0.17995 13.44 0.53995C13.84 0.85995 14.04 1.39995 14.04 2.15995V18.7199C14.04 19.1199 14.08 19.5199 14.16 19.92C14.24 20.32 14.36 20.74 14.52 21.18L17.34 29.58C17.46 29.98 17.6 30.26 17.76 30.42C17.92 30.54 18.16 30.6 18.48 30.6H19.14C19.46 30.6 19.7 30.54 19.86 30.42C20.02 30.26 20.16 29.98 20.28 29.58L23.1 21.1199C23.26 20.68 23.38 20.26 23.46 19.8599C23.54 19.4599 23.58 19.06 23.58 18.66V2.15995C23.58 1.39995 23.74 0.85995 24.06 0.53995C24.42 0.17995 24.98 -5.05447e-05 25.74 -5.05447e-05H35.16C35.92 -5.05447e-05 36.46 0.17995 36.78 0.53995C37.14 0.85995 37.32 1.39995 37.32 2.15995V18C37.32 18.9599 37.28 19.7799 37.2 20.46C37.16 21.1 37.06 21.72 36.9 22.3199C36.74 22.92 36.54 23.56 36.3 24.24C36.06 24.88 35.76 25.64 35.4 26.5199L29.52 41.22C29.24 41.98 28.84 42.5 28.32 42.78C27.84 43.06 27.22 43.2 26.46 43.2ZM55.8281 43.2H46.8881C46.1281 43.2 45.5681 43.04 45.2081 42.72C44.8881 42.36 44.7281 41.8 44.7281 41.04V2.15995C44.7281 1.39995 44.8881 0.85995 45.2081 0.53995C45.5681 0.17995 46.1281 -5.05447e-05 46.8881 -5.05447e-05H56.5481C57.1881 -5.05447e-05 57.7081 0.139949 58.1081 0.419948C58.5481 0.699949 58.9481 1.15995 59.3081 1.79995L64.7081 11.58C64.9081 11.94 65.0681 12.2 65.1881 12.36C65.3481 12.5199 65.5481 12.5999 65.7881 12.5999H66.3281C66.5681 12.5999 66.7481 12.5199 66.8681 12.36C67.0281 12.2 67.2081 11.94 67.4081 11.58L72.7481 1.79995C73.1081 1.15995 73.4881 0.699949 73.8881 0.419948C74.3281 0.139949 74.8681 -5.05447e-05 75.5081 -5.05447e-05H85.2281C85.9881 -5.05447e-05 86.5281 0.17995 86.8481 0.53995C87.2081 0.85995 87.3881 1.39995 87.3881 2.15995V41.04C87.3881 41.8 87.2081 42.36 86.8481 42.72C86.5281 43.04 85.9881 43.2 85.2281 43.2H75.9881C75.2281 43.2 74.6681 43.04 74.3081 42.72C73.9881 42.36 73.8281 41.8 73.8281 41.04V19.92L70.2881 26.46C69.9281 27.1399 69.4881 27.64 68.9681 27.96C68.4881 28.24 67.8681 28.38 67.1081 28.38H64.7081C63.9481 28.38 63.3081 28.24 62.7881 27.96C62.3081 27.64 61.8881 27.1399 61.5281 26.46L57.9881 19.92V41.04C57.9881 41.8 57.8081 42.36 57.4481 42.72C57.1281 43.04 56.5881 43.2 55.8281 43.2ZM106.746 43.2H97.8061C97.0461 43.2 96.4861 43.04 96.1261 42.72C95.8061 42.36 95.6461 41.8 95.6461 41.04V2.15995C95.6461 1.39995 95.8061 0.85995 96.1261 0.53995C96.4861 0.17995 97.0461 -5.05447e-05 97.8061 -5.05447e-05H107.466C108.106 -5.05447e-05 108.626 0.139949 109.026 0.419948C109.466 0.699949 109.866 1.15995 110.226 1.79995L115.626 11.58C115.826 11.94 115.986 12.2 116.106 12.36C116.266 12.5199 116.466 12.5999 116.706 12.5999H117.246C117.486 12.5999 117.666 12.5199 117.786 12.36C117.946 12.2 118.126 11.94 118.326 11.58L123.666 1.79995C124.026 1.15995 124.406 0.699949 124.806 0.419948C125.246 0.139949 125.786 -5.05447e-05 126.426 -5.05447e-05H136.146C136.906 -5.05447e-05 137.446 0.17995 137.766 0.53995C138.126 0.85995 138.306 1.39995 138.306 2.15995V41.04C138.306 41.8 138.126 42.36 137.766 42.72C137.446 43.04 136.906 43.2 136.146 43.2H126.906C126.146 43.2 125.586 43.04 125.226 42.72C124.906 42.36 124.746 41.8 124.746 41.04V19.92L121.206 26.46C120.846 27.1399 120.406 27.64 119.886 27.96C119.406 28.24 118.786 28.38 118.026 28.38H115.626C114.866 28.38 114.226 28.24 113.706 27.96C113.226 27.64 112.806 27.1399 112.446 26.46L108.906 19.92V41.04C108.906 41.8 108.726 42.36 108.366 42.72C108.046 43.04 107.506 43.2 106.746 43.2Z" fill="#1789FC"/>
</svg>
