<svg width="60" height="88" viewBox="0 0 60 88" fill="none" xmlns="http://www.w3.org/2000/svg">
<path d="M0 60C0 57.7909 1.79086 56 4 56H8C10.2091 56 12 57.7909 12 60V88H0V60Z" fill="#B2D8FE"/>
<path d="M16 76C16 73.7909 17.7909 72 20 72H24C26.2091 72 28 73.7909 28 76V88H16V76Z" fill="#B2D8FE"/>
<path d="M32 4C32 1.79086 33.7909 0 36 0H40C42.2091 0 44 1.79086 44 4V88H32V4Z" fill="#1789FC"/>
<path d="M48 76C48 73.7909 49.7909 72 52 72H56C58.2091 72 60 73.7909 60 76V88H48V76Z" fill="#B2D8FE"/>
</svg>
