<svg width="13" height="13" viewBox="0 0 13 13" fill="none" xmlns="http://www.w3.org/2000/svg">
<path d="M6.25 0C5.01387 0 3.8055 0.366556 2.77769 1.05331C1.74988 1.74007 0.948803 2.71619 0.475756 3.85823C0.00270793 5.00027 -0.121063 6.25693 0.120095 7.46931C0.361252 8.6817 0.956507 9.79534 1.83059 10.6694C2.70466 11.5435 3.81831 12.1388 5.03069 12.3799C6.24307 12.6211 7.49974 12.4973 8.64177 12.0242C9.78381 11.5512 10.7599 10.7501 11.4467 9.72231C12.1334 8.69451 12.5 7.48613 12.5 6.25C12.4982 4.59296 11.8391 3.0043 10.6674 1.83259C9.4957 0.660884 7.90705 0.00181975 6.25 0ZM6.25 12C5.11276 12 4.00106 11.6628 3.05547 11.031C2.10989 10.3991 1.3729 9.50111 0.937695 8.45043C0.502492 7.39975 0.388622 6.24362 0.610487 5.12823C0.832352 4.01284 1.37999 2.98829 2.18414 2.18414C2.98829 1.37998 4.01284 0.83235 5.12823 0.610485C6.24362 0.38862 7.39976 0.502489 8.45043 0.937693C9.50111 1.3729 10.3991 2.10989 11.031 3.05547C11.6628 4.00105 12 5.11276 12 6.25C11.9983 7.77449 11.392 9.23606 10.314 10.314C9.23606 11.392 7.77449 11.9983 6.25 12ZM10 6.25C10 6.3163 9.97366 6.37989 9.92678 6.42678C9.8799 6.47366 9.81631 6.5 9.75 6.5H6.25C6.1837 6.5 6.12011 6.47366 6.07323 6.42678C6.02634 6.37989 6 6.3163 6 6.25V2.75C6 2.6837 6.02634 2.62011 6.07323 2.57322C6.12011 2.52634 6.1837 2.5 6.25 2.5C6.31631 2.5 6.3799 2.52634 6.42678 2.57322C6.47366 2.62011 6.5 2.6837 6.5 2.75V6H9.75C9.81631 6 9.8799 6.02634 9.92678 6.07322C9.97366 6.12011 10 6.1837 10 6.25Z" fill="black"/>
</svg>
