<svg width="16" height="16" viewBox="0 0 16 16" fill="none" xmlns="http://www.w3.org/2000/svg">
<path d="M8 1.75C6.76387 1.75 5.5555 2.11656 4.52769 2.80331C3.49988 3.49007 2.6988 4.46619 2.22576 5.60823C1.75271 6.75027 1.62894 8.00693 1.87009 9.21931C2.11125 10.4317 2.70651 11.5453 3.58059 12.4194C4.45466 13.2935 5.56831 13.8888 6.78069 14.1299C7.99307 14.3711 9.24974 14.2473 10.3918 13.7742C11.5338 13.3012 12.5099 12.5001 13.1967 11.4723C13.8834 10.4445 14.25 9.23613 14.25 8C14.2482 6.34296 13.5891 4.7543 12.4174 3.58259C11.2457 2.41088 9.65705 1.75182 8 1.75ZM8 13.75C6.86276 13.75 5.75106 13.4128 4.80547 12.781C3.85989 12.1491 3.1229 11.2511 2.6877 10.2004C2.25249 9.14975 2.13862 7.99362 2.36049 6.87823C2.58235 5.76284 3.12999 4.73829 3.93414 3.93414C4.73829 3.12998 5.76284 2.58235 6.87823 2.36048C7.99362 2.13862 9.14976 2.25249 10.2004 2.68769C11.2511 3.1229 12.1491 3.85989 12.781 4.80547C13.4128 5.75105 13.75 6.86276 13.75 8C13.7483 9.52449 13.142 10.9861 12.064 12.064C10.9861 13.142 9.52449 13.7483 8 13.75ZM11.75 8C11.75 8.0663 11.7237 8.12989 11.6768 8.17678C11.6299 8.22366 11.5663 8.25 11.5 8.25H8C7.9337 8.25 7.87011 8.22366 7.82323 8.17678C7.77634 8.12989 7.75 8.0663 7.75 8V4.5C7.75 4.4337 7.77634 4.37011 7.82323 4.32322C7.87011 4.27634 7.9337 4.25 8 4.25C8.06631 4.25 8.1299 4.27634 8.17678 4.32322C8.22366 4.37011 8.25 4.4337 8.25 4.5V7.75H11.5C11.5663 7.75 11.6299 7.77634 11.6768 7.82322C11.7237 7.87011 11.75 7.9337 11.75 8Z" fill="#FBFBFB"/>
</svg>
