<svg width="18" height="18" viewBox="0 0 18 18" fill="none" xmlns="http://www.w3.org/2000/svg">
<path d="M8.9375 0C7.16983 0 5.44186 0.524175 3.9721 1.50624C2.50233 2.48831 1.35679 3.88415 0.680331 5.51727C0.00387248 7.15038 -0.17312 8.94742 0.171736 10.6811C0.516591 12.4148 1.36781 14.0073 2.61774 15.2573C3.86767 16.5072 5.46018 17.3584 7.19388 17.7033C8.92759 18.0481 10.7246 17.8711 12.3577 17.1947C13.9909 16.5182 15.3867 15.3727 16.3688 13.9029C17.3508 12.4331 17.875 10.7052 17.875 8.9375C17.8725 6.5679 16.9301 4.29606 15.2545 2.6205C13.5789 0.944933 11.3071 0.00250234 8.9375 0ZM12.1739 11.2011C12.2378 11.265 12.2885 11.3408 12.323 11.4243C12.3576 11.5077 12.3754 11.5972 12.3754 11.6875C12.3754 11.7778 12.3576 11.8673 12.323 11.9507C12.2885 12.0342 12.2378 12.11 12.1739 12.1739C12.11 12.2378 12.0342 12.2885 11.9507 12.323C11.8673 12.3576 11.7778 12.3754 11.6875 12.3754C11.5972 12.3754 11.5077 12.3576 11.4243 12.323C11.3408 12.2885 11.265 12.2378 11.2011 12.1739L8.9375 9.90945L6.67391 12.1739C6.61003 12.2378 6.5342 12.2885 6.45075 12.323C6.36729 12.3576 6.27784 12.3754 6.1875 12.3754C6.09717 12.3754 6.00772 12.3576 5.92426 12.323C5.84081 12.2885 5.76497 12.2378 5.7011 12.1739C5.63722 12.11 5.58655 12.0342 5.55198 11.9507C5.51741 11.8673 5.49962 11.7778 5.49962 11.6875C5.49962 11.5972 5.51741 11.5077 5.55198 11.4243C5.58655 11.3408 5.63722 11.265 5.7011 11.2011L7.96555 8.9375L5.7011 6.67391C5.57209 6.5449 5.49962 6.36994 5.49962 6.1875C5.49962 6.00506 5.57209 5.8301 5.7011 5.70109C5.8301 5.57209 6.00507 5.49962 6.1875 5.49962C6.36994 5.49962 6.54491 5.57209 6.67391 5.70109L8.9375 7.96555L11.2011 5.70109C11.265 5.63722 11.3408 5.58655 11.4243 5.55198C11.5077 5.51741 11.5972 5.49962 11.6875 5.49962C11.7778 5.49962 11.8673 5.51741 11.9507 5.55198C12.0342 5.58655 12.11 5.63722 12.1739 5.70109C12.2378 5.76497 12.2885 5.8408 12.323 5.92426C12.3576 6.00772 12.3754 6.09717 12.3754 6.1875C12.3754 6.27783 12.3576 6.36728 12.323 6.45074C12.2885 6.5342 12.2378 6.61003 12.1739 6.67391L9.90946 8.9375L12.1739 11.2011Z" fill="black"/>
</svg>
